<svg id="Capa_1" enable-background="new 0 0 512 512" height="512" viewBox="0 0 512 512" width="512" xmlns="http://www.w3.org/2000/svg"><g><path d="m434.111 175.335s5.589-25.296 5.589-38.762c0-75.427-61.146-136.573-136.573-136.573-34.266 0-65.58 12.624-89.557 33.471-5.105 4.439-11.833 6.561-18.551 5.771-165.273-19.426-109.975 151.604-115.87 212.909-4.172 43.386-63.845 84.341-26.909 122.371 93.456 96.223 249.093 111.38 364.587 38.93 127.534-80.003-10.791-123.65 17.284-238.117z" fill="#6a61b2"/><path d="m434.111 175.335s5.589-25.296 5.589-38.762c0-75.427-61.146-136.573-136.573-136.573-5.235 0-10.401.298-15.483.872 68.165 7.662 121.151 65.49 121.151 135.702 0 13.466-5.589 38.762-5.589 38.762-28.075 114.466 110.25 158.114-17.284 238.117-43.981 27.589-93.783 42.46-143.756 45.002 60.079 3.06 121.606-11.72 174.662-45.002 127.534-80.004-10.792-123.651 17.283-238.118z" fill="#5f55ad"/><path d="m272.958 93.492c-.467-.011-.947-.007-1.415-.007-30.019.031-60.036 10.364-82.112 34.901v-16.45c0-24.183 19.607-43.791 43.79-43.791 12.097 0 23.04 4.902 30.973 12.825 3.604 3.602 6.584 7.838 8.764 12.522z" fill="#5f55ad"/><path d="m180.306 204.865v75.114c-4.07.623-8.313.955-12.675.955-31.476 0-56.989-17.247-56.989-38.512 0-21.276 25.512-38.512 56.989-38.512 4.362 0 8.605.332 12.675.955z" fill="#ebae9d"/><path d="m435.282 497.443v6.142c0 4.646-3.769 8.415-8.416 8.415h-116.503l-39.066-10-39.032 10h-116.534c-4.656 0-8.417-3.771-8.417-8.417v-6.14c0-57.072 67.992-69.352 109.55-81.941 4.502-1.36 7.572-5.501 7.572-10.199v-87.597h93.724v87.595c0 4.698 3.07 8.841 7.572 10.201 41.557 12.589 109.55 24.868 109.55 81.941z" fill="#ffcdbe"/><path d="m325.731 415.503c-4.498-1.363-7.572-5.501-7.572-10.201v-87.595h-30.907v96.864c0 4.7 3.074 8.841 7.572 10.203 41.558 12.588 109.553 15.592 109.553 72.668v6.144c0 4.647-3.767 8.414-8.414 8.414h30.904c4.647 0 8.416-3.769 8.416-8.415v-6.142c-.001-57.076-67.993-69.353-109.552-81.94z" fill="#ebae9d"/><path d="m387.757 239.091c.001 82.272-77.656 137.985-116.46 137.985s-116.46-55.713-116.46-137.985c0-106.548 58.353-145.558 116.706-145.607 61.444-.052 116.212 39.059 116.214 145.607z" fill="#ffcdbe"/><path d="m271.544 93.484c-4.985.004-9.969.301-14.918.892 54.645 6.236 100.224 46.118 100.225 140.504.001 79.892-77.656 133.994-116.46 133.994 11.388 5.35 22.139 8.202 30.905 8.202 38.804 0 116.461-55.713 116.46-137.985-.001-106.548-54.768-145.659-116.212-145.607z" fill="#ebae9d"/><path d="m389.315 123.758-138.145-86.823-17.948 31.209c24.186 0 43.794 19.606 43.794 43.793v74.102c0 55.589 45.064 100.654 100.654 100.654h39.155z" fill="#6a61b2"/><path d="m343.706 177.579c24.096 7.973 34.519 18.397 42.492 42.492 2.169 6.556 11.365 6.556 13.535 0 7.973-24.096 18.397-34.519 42.492-42.492 6.556-2.169 6.556-11.365 0-13.535-24.096-7.973-34.519-18.397-42.492-42.492-2.169-6.556-11.365-6.556-13.535 0-7.973 24.096-18.397 34.519-42.492 42.492-6.555 2.17-6.555 11.366 0 13.535z" fill="#f5de46"/><path d="m384.574 53.306c15.776 5.22 22.6 12.044 27.82 27.82 1.42 4.292 7.441 4.292 8.861 0 5.22-15.776 12.044-22.6 27.82-27.82 4.292-1.42 4.292-7.441 0-8.861-15.776-5.22-22.6-12.044-27.82-27.82-1.42-4.292-7.441-4.292-8.861 0-5.22 15.776-12.044 22.6-27.82 27.82-4.292 1.42-4.292 7.44 0 8.861z" fill="#ecc52e"/><path d="m274.834 477.767c-4.01 0-7.398-3.097-7.697-7.16-.313-4.256 2.883-7.959 7.139-8.272 20.313-1.493 40.019-18.293 55.487-47.304 2.008-3.766 6.687-5.193 10.453-3.183 3.766 2.008 5.19 6.687 3.183 10.453-18.052 33.858-42.198 53.549-67.99 55.445-.193.014-.385.021-.575.021z" fill="#e8a2cb"/><path d="m267.763 477.767c-.19 0-.381-.007-.574-.021-25.792-1.895-49.939-21.587-67.991-55.445-2.007-3.766-.583-8.445 3.183-10.453 3.763-2.007 8.445-.582 10.453 3.183 15.468 29.011 35.174 45.81 55.488 47.304 4.256.313 7.452 4.016 7.139 8.272-.3 4.063-3.688 7.16-7.698 7.16z" fill="#e8a2cb"/><g fill="#e09380"><path d="m271.297 311.813c-9.994 0-19.984-2.355-29.908-7.067-3.742-1.777-5.335-6.251-3.559-9.992 1.777-3.742 6.25-5.335 9.992-3.559 15.794 7.5 31.151 7.502 46.949 0 3.739-1.776 8.215-.184 9.992 3.559 1.776 3.741.184 8.215-3.559 9.992-9.921 4.711-19.916 7.067-29.907 7.067z"/><path d="m240.331 210.344c-1.572 0-3.157-.492-4.509-1.512-8.812-6.642-26.764-6.644-35.577 0-3.307 2.494-8.011 1.835-10.503-1.474-2.494-3.307-1.834-8.01 1.474-10.503 14.286-10.771 39.352-10.771 53.636 0 3.308 2.493 3.968 7.196 1.474 10.503-1.474 1.956-3.722 2.985-5.995 2.986z"/><path d="m218.033 241.587c-4.143 0-7.5-3.357-7.5-7.5v-4.821c0-4.143 3.357-7.5 7.5-7.5s7.5 3.357 7.5 7.5v4.821c0 4.142-3.357 7.5-7.5 7.5z"/></g><path d="m134.258 305.471c-4.143 0-7.5-3.357-7.5-7.5v-43.525c0-4.143 3.357-7.5 7.5-7.5s7.5 3.357 7.5 7.5v43.525c0 4.142-3.358 7.5-7.5 7.5z" fill="#e5d5f5"/><path d="m310.363 512h-78.129c0-.206.01-.423.031-.639 1.226-14.68 16.689-33.265 29.453-46.266 2.545-2.586 5.944-4.018 9.581-4.018 3.626 0 7.036 1.432 9.581 4.018 12.764 13.001 28.227 31.586 29.453 46.266.019.216.03.433.03.639z" fill="#e279b3"/></g></svg>