<svg id="Capa_1" enable-background="new 0 0 512 512" height="512" viewBox="0 0 512 512" width="512" xmlns="http://www.w3.org/2000/svg"><g><g><path d="m495 444.31v52.69c0 8.28-6.72 15-15 15h-448c-8.28 0-15-6.72-15-15v-52.69c0-18.51 11.1-34.91 28.29-41.78l141.14-56.46c1.77-.71 3.66-1.07 5.57-1.07h128c1.91 0 3.8.36 5.57 1.07l141.14 56.46c17.19 6.87 28.29 23.27 28.29 41.78z" fill="#49b8eb"/></g><g><path d="m495 444.31v52.69c0 8.28-6.72 15-15 15h-224v-167h64c1.91 0 3.8.36 5.57 1.07l141.14 56.46c17.19 6.87 28.29 23.27 28.29 41.78z" fill="#0198fb"/></g><circle cx="256" cy="368" fill="#ffbda9" r="87"/><path d="m343 368c0 47.97-39.03 87-87 87v-174c47.97 0 87 39.03 87 87z" fill="#ffa68c"/><path d="m463 190v36c0 24.81-20.19 45-45 45h-50c-8.28 0-15-6.72-15-15v-96c0-8.28 6.72-15 15-15h50c24.81 0 45 20.19 45 45z" fill="#ffa68c"/><path d="m159 160v96c0 8.28-6.72 15-15 15h-50c-24.81 0-45-20.19-45-45v-36c0-24.81 20.19-45 45-45h50c8.28 0 15 6.72 15 15z" fill="#ffbda9"/><path d="m159 160v96c0 8.28-6.72 15-15 15h-50c-24.81 0-45-20.19-45-45v-36c0-24.81 20.19-45 45-45h50c8.28 0 15 6.72 15 15z" fill="#ffbda9"/><path d="m407 200v22.79c0 65.9-32.73 127.06-87.56 163.61-12.37 8.24-26.75 12.6-41.61 12.6h-43.66c-14.86 0-29.25-4.36-41.61-12.6-54.83-36.55-87.56-97.71-87.56-163.61v-22.79c0-83.26 67.74-151 151-151s151 67.74 151 151z" fill="#ffccbd"/><path d="m407 200v22.79c0 65.9-32.73 127.06-87.56 163.61-12.37 8.24-26.75 12.6-41.61 12.6h-21.83v-350c83.26 0 151 67.74 151 151z" fill="#ffbda9"/><path d="m284.74 342.23c-9.26 3.09-19 4.63-28.74 4.63s-19.48-1.54-28.74-4.63c-7.86-2.62-12.11-11.11-9.49-18.97s11.11-12.11 18.97-9.49c6.21 2.07 12.74 3.11 19.26 3.11s13.05-1.04 19.26-3.11c7.86-2.62 16.35 1.63 18.97 9.49s-1.63 16.35-9.49 18.97z" fill="#ffbda9"/><path d="m284.74 342.23c-9.26 3.09-19 4.63-28.74 4.63v-29.98c6.52 0 13.05-1.04 19.26-3.11 7.86-2.62 16.35 1.63 18.97 9.49s-1.63 16.35-9.49 18.97z" fill="#ffa68c"/><path d="m256 15v97c0 8.28-6.72 15-15 15-44.56 0-89.7 11.44-128.65 33.08l-9.07 5.03c-2.26 1.26-4.77 1.89-7.28 1.89-2.63 0-5.26-.69-7.61-2.07-4.58-2.7-7.39-7.62-7.39-12.93v-1c0-87.67 72.33-151 160-151 8.28 0 15 6.72 15 15z" fill="#a24f3e"/><g fill="#873f2e"><path d="m311.988 111.003c-2.254 0-4.543-.51-6.696-1.587-7.41-3.705-10.413-12.715-6.708-20.125l16-32c3.705-7.41 12.716-10.414 20.125-6.708 7.41 3.705 10.413 12.715 6.708 20.125l-16 32c-2.628 5.256-7.926 8.295-13.429 8.295z"/><path d="m352 143c-3.839 0-7.678-1.464-10.606-4.394-5.858-5.858-5.858-15.355 0-21.213l24-24c5.857-5.858 15.355-5.858 21.213 0s5.858 15.355 0 21.213l-24 24c-2.929 2.93-6.768 4.394-10.607 4.394z"/></g></g></svg>