<?xml version="1.0" encoding="iso-8859-1"?>
<!-- Generator: Adobe Illustrator 19.0.0, SVG Export Plug-In . SVG Version: 6.00 Build 0)  -->
<svg xmlns="http://www.w3.org/2000/svg" xmlns:xlink="http://www.w3.org/1999/xlink" version="1.1" id="Capa_1" x="0px" y="0px" viewBox="0 0 512 512" style="enable-background:new 0 0 512 512;" xml:space="preserve" width="512" height="512">
<g>
	<g>
		<path style="fill:#F9C295;" d="M291.978,499.458c-1.82,6.41-7.641,10.532-13.917,10.532c-1.619,0-3.265-0.268-4.871-0.844    c-21.103-7.52-60.539-21.304-86.781-28.864c-27.406-7.909-47.572-6.035-71.151-10.866c-23.565-4.831-27.499-45.859-4.871-70.656    c1.94-12.392-11.161-92.201-31.166-128.037c-32.197-57.703-44.093-100.163-26.978-144.309    c-7.119,5.192-30.524,22.588-52.243,38.78V18.636C50.49,2.912,94.034-6.148,116.837,12.212    c28.035,22.589,52.042,248.888,53.139,353.748c0.174,16.38,7.788,31.796,20.648,41.952l96.403,76.223    C291.63,487.762,293.583,493.81,291.978,499.458z"/>
		<path style="fill:#E8A26A;" d="M287.027,484.135l-96.403-76.223c-12.86-10.157-20.474-25.573-20.648-41.952    c-1.097-104.86-25.104-331.16-53.139-353.748C105.232,2.869,88.248,0.637,67.718,2.76c9.41,1.284,17.482,4.279,23.907,9.452    C119.66,34.801,143.667,261.1,144.764,365.96c0.174,16.379,7.788,31.796,20.648,41.952l96.403,76.223    c4.603,3.627,6.557,9.675,4.951,15.322c-0.683,2.406-1.93,4.489-3.553,6.154c3.629,1.279,6.991,2.471,9.976,3.535    c1.606,0.575,3.252,0.843,4.871,0.843c6.276,0,12.097-4.122,13.917-10.532C293.584,493.81,291.63,487.762,287.027,484.135z"/>
		<g>
			<path style="fill:#D8E6F0;" d="M490.223,196.59c5.057-5.31,5.295-13.573,0.546-19.16c-16.057-18.887-51.7-58.684-71.926-64.882     c-30.782-9.432-124.381,4.612-158.191,10.173c-7.13,1.173-12.349,7.332-12.349,14.558v97.848c0,8.149,6.606,14.755,14.755,14.755     h115.27c6.35,0,11.857,4.389,13.272,10.58l27.5,120.243c3.473,15.186,18.599,24.681,33.784,21.207h0     c15.185-3.473,24.68-18.599,21.207-33.784l-25.889-113.198c-1.637-7.156,0.423-14.657,5.486-19.973L490.223,196.59z"/>
			<path style="fill:#AAC0D1;" d="M490.223,196.591c5.057-5.31,5.295-13.574,0.546-19.16c-16.057-18.887-51.7-58.685-71.927-64.882     c-9.897-3.033-26.293-3.636-45.103-2.877c7.831,0.428,14.531,1.339,19.551,2.877c20.227,6.198,55.87,45.995,71.927,64.882     c4.749,5.586,4.511,13.85-0.546,19.16l-36.535,38.366c-5.063,5.316-7.123,12.817-5.486,19.973l25.889,113.198     c2.946,12.881-3.441,25.715-14.715,31.435c5.679,2.888,12.363,3.881,19.059,2.35l0,0c15.186-3.473,24.68-18.599,21.207-33.784     l-25.889-113.198c-1.637-7.156,0.423-14.657,5.486-19.973L490.223,196.591z"/>
			<path style="fill:#78BAF6;" d="M394.735,274.175h-13.033c-8.774,0-15.886,7.113-15.886,15.886l0,0     c0,8.774,7.113,15.886,15.886,15.886h20.3L394.735,274.175z"/>
			<path style="fill:#78BAF6;" d="M216.179,154.073v57.456c0,3.462,2.806,6.268,6.268,6.268h25.855v-69.992h-25.855     C218.985,147.805,216.179,150.611,216.179,154.073z"/>
			<g>
				<path style="fill:#AAC0D1;" d="M403.753,207.084c-3.089,0-5.987-1.907-7.104-4.975l-14.738-40.494      c-1.428-3.923,0.595-8.261,4.518-9.689c3.924-1.425,8.262,0.596,9.689,4.518l14.738,40.494c1.428,3.923-0.595,8.261-4.518,9.689      C405.484,206.936,404.611,207.084,403.753,207.084z"/>
				<path style="fill:#AAC0D1;" d="M360.918,207.084c-3.089,0-5.987-1.907-7.104-4.975l-14.738-40.494      c-1.428-3.923,0.595-8.261,4.518-9.689c3.923-1.425,8.261,0.596,9.689,4.518l14.738,40.494c1.428,3.923-0.595,8.261-4.518,9.689      C362.65,206.936,361.777,207.084,360.918,207.084z"/>
			</g>
			<path style="fill:#78BAF6;" d="M504.441,450.786h-2.861c-25.341,0-47.751-17.059-54.497-41.484l-1.485-5.379     c-1.111-4.024,1.25-8.187,5.275-9.298c4.03-1.112,8.188,1.251,9.298,5.275l1.485,5.378c4.942,17.893,21.36,30.39,39.924,30.39     h2.861c4.175,0,7.559,3.384,7.559,7.559C512,447.402,508.616,450.786,504.441,450.786z"/>
			<path style="fill:#606572;" d="M419.099,380.704c3.473,15.186,18.599,24.68,33.784,21.207l0,0     c15.186-3.473,24.68-18.599,21.207-33.784l-12.519-54.739c-8.091,23.324-22.634,46.508-43.845,61.318L419.099,380.704z"/>
			<path style="fill:#3B4254;" d="M461.571,313.388c-4.156,11.98-10.026,23.913-17.616,34.703l4.582,20.036     c2.946,12.881-3.441,25.715-14.715,31.435h0c0.261,0.133,0.527,0.258,0.793,0.382c0.118,0.055,0.235,0.113,0.354,0.167     c0.245,0.111,0.493,0.216,0.742,0.32c0.143,0.06,0.286,0.121,0.43,0.178c0.24,0.096,0.483,0.188,0.726,0.277     c0.156,0.057,0.313,0.114,0.47,0.169c0.239,0.083,0.478,0.163,0.719,0.24c0.167,0.053,0.334,0.103,0.502,0.154     c0.237,0.07,0.474,0.14,0.714,0.205c0.176,0.047,0.353,0.09,0.531,0.134c0.235,0.059,0.47,0.118,0.706,0.171     c0.19,0.042,0.382,0.078,0.573,0.116c0.228,0.045,0.455,0.094,0.684,0.134c0.402,0.07,0.806,0.132,1.212,0.185     c0.191,0.024,0.383,0.041,0.575,0.062c0.243,0.026,0.486,0.054,0.73,0.074c0.196,0.016,0.394,0.026,0.591,0.038     c0.242,0.014,0.485,0.029,0.728,0.038c0.197,0.006,0.394,0.009,0.592,0.011c0.247,0.003,0.495,0.004,0.743,0.001     c0.195-0.003,0.39-0.008,0.586-0.014c0.254-0.008,0.509-0.021,0.764-0.036c0.189-0.012,0.379-0.024,0.568-0.039     c0.269-0.022,0.538-0.05,0.808-0.08c0.177-0.019,0.354-0.037,0.531-0.06c0.299-0.039,0.599-0.086,0.9-0.135     c0.148-0.024,0.296-0.044,0.444-0.071c0.448-0.08,0.897-0.169,1.346-0.272c15.186-3.473,24.68-18.599,21.207-33.784     L461.571,313.388z"/>
		</g>
	</g>
</g>















</svg>
