<?xml version="1.0" encoding="iso-8859-1"?>
<!-- Generator: Adobe Illustrator 21.0.0, SVG Export Plug-In . SVG Version: 6.00 Build 0)  -->
<svg xmlns="http://www.w3.org/2000/svg" xmlns:xlink="http://www.w3.org/1999/xlink" version="1.1" id="Capa_1" x="0px" y="0px" viewBox="0 0 512.001 512.001" style="enable-background:new 0 0 512.001 512.001;" xml:space="preserve" width="512" height="512">
<g>
	<path style="fill:#F9CFBF;" d="M492.31,503.327c40.993-168.625-31.993-190.319-62.993-291.889s20-203.139,20-203.139H62.684   c0,0,51,101.569,20,203.139S-21.302,334.702,19.691,503.327"/>
	<path style="fill:#F6B99C;" d="M429.317,211.438c-31-101.569,20-203.139,20-203.139h-33c0,0-51,101.569-20,203.139   s103.986,123.264,62.993,291.889h33C533.303,334.702,460.317,313.007,429.317,211.438z"/>
	<g>
		<path style="fill:#FF7373;" d="M469.78,112.662c0.997-4.017-1.448-8.083-5.465-9.085c-4.021-1-8.089,1.444-9.092,5.463    c-0.646,2.594-15.455,64.067,18.194,110.729c1.466,2.033,3.761,3.114,6.089,3.114c1.52,0,3.055-0.46,4.381-1.417    c3.359-2.422,4.119-7.11,1.696-10.47C456.089,170.096,469.618,113.32,469.78,112.662z"/>
		<path style="fill:#FF7373;" d="M46.174,103.577c-4.019,1.002-6.465,5.073-5.463,9.092c0.142,0.568,13.815,57.25-15.806,98.327    c-2.423,3.36-1.664,8.047,1.696,10.47c1.327,0.957,2.861,1.417,4.38,1.417c2.329,0,4.624-1.081,6.089-3.114    c33.649-46.662,18.841-108.135,18.194-110.729C54.263,105.021,50.193,102.577,46.174,103.577z"/>
		<path style="fill:#FF7373;" d="M21.958,133.228c-1-4.012-5.055-6.444-9.069-5.458c-4.014,0.989-6.468,5.05-5.491,9.066    c0.054,0.222,5.269,22.369-5.981,37.971c-2.423,3.359-1.664,8.047,1.696,10.47c1.327,0.957,2.86,1.417,4.38,1.417    c2.329,0,4.624-1.081,6.09-3.114C28.96,162.259,22.251,134.403,21.958,133.228z"/>
		<path style="fill:#FF7373;" d="M510.583,174.808c-11.2-15.532-6.082-37.552-5.982-37.966c0.991-4.014-1.453-8.075-5.467-9.076    c-4.021-1.002-8.089,1.444-9.092,5.463c-0.293,1.175-7.001,29.031,8.375,50.353c1.466,2.033,3.761,3.114,6.089,3.114    c1.521,0,3.055-0.46,4.381-1.417C512.247,182.855,513.006,178.167,510.583,174.808z"/>
	</g>
	<path style="fill:#F6B99C;" d="M253.5,179.813c-4.142,0-7.5,3.358-7.5,7.5v25.639c0,4.142,3.358,7.5,7.5,7.5   c4.143,0,7.5-3.358,7.5-7.5v-25.639C261,183.171,257.643,179.813,253.5,179.813z"/>
	<g>
		<path style="fill:#F6B99C;" d="M248.5,503.327v-54.729c0-4.142,3.358-7.5,7.5-7.5c4.143,0,7.5,3.358,7.5,7.5v54.729    C264,503.827,249,503.827,248.5,503.327z"/>
	</g>
	<path style="fill:#6BB7ED;" d="M484,322.799c0,0-78.588-2.588-192.621,111.445c-9.24,9.24-22.225,13.861-35.379,13.861h0   c-13.155,0-26.851-3.96-35.379-13.861C128.5,327.299,29,322.799,29,322.799l45-86c0,0,74.277,27.395,182.5,27.395   S439,236.799,439,236.799L484,322.799z"/>
	<g>
		<path style="fill:#4EA6E6;" d="M439,236.799c0,0-12.179,4.491-33.853,9.836l16.267,31.087    c10.976,20.976,0.887,46.806-21.401,54.785c-34.11,12.21-85.632,39.736-147.633,101.736c-4.648,4.648-10.245,8.125-16.333,10.435    c6.278,2.367,13.185,3.426,19.954,3.426c13.155,0,26.139-4.621,35.379-13.861C405.412,320.211,484,322.799,484,322.799    L439,236.799z"/>
	</g>
</g>















</svg>
