<svg id="Capa_1" enable-background="new 0 0 512.053 512.053" viewBox="0 0 512.053 512.053" xmlns="http://www.w3.org/2000/svg"><g><g><g><circle cx="196.84" cy="16.602" fill="#7159b8" r="16.575"/><circle cx="55.315" cy="57.039" fill="#7c66bd" r="23.863"/><circle cx="312.927" cy="16.602" fill="#7159b8" r="16.575"/><circle cx="454.452" cy="57.039" fill="#7c66bd" r="23.863"/><g fill="#6045af"><circle cx="97.438" cy="98.76" r="7.726"/><circle cx="412.241" cy="98.76" r="7.726"/><circle cx="125.066" cy="18.648" r="7.726"/><circle cx="384.702" cy="18.648" r="7.726"/></g></g><g><path d="m215.804 109.935 11.116 12.234-11.116 92.45-79.05-44.097v-20.8c-.615-18.513 2.217-38.099 8.695-58.326 2.975-9.288 13.233-14.072 22.26-10.38 18.637 7.621 34.726 17.384 48.095 28.919z" fill="#a06ce5"/><path d="m372.717 149.722.082 23.474-73.283 37.876-27.881-84.168 22.032-16.969c13.369-11.535 29.458-21.297 48.095-28.919 9.027-3.692 19.285 1.092 22.26 10.38 6.478 20.227 9.309 39.812 8.695 58.326z" fill="#a06ce5"/><path d="m253.171 327.467c-87.243-9.323-156.111-78.702-165.434-165.945-1.069-10.001 7.366-18.436 17.367-17.367 35.836 3.83 67.358 15.805 93.075 34.434l17.624 12.318 38.931 136.641z" fill="#af82e9"/><path d="m258.834 314.352c87.243-9.323 148.492-61.103 157.815-148.346 1.069-10.001-7.366-18.436-17.367-17.367-5.408.578-5.631-3.132-10.837-2.188-29.294 5.31-55.318 16.319-77.154 32.137l-22.428 16.176z" fill="#af82e9"/><g><path d="m404.366 144.154c-5.411.578-10.712 1.353-15.921 2.297-12.829 66.151-60.228 119.936-122.803 141.308l-9.371 39.712c87.243-9.323 156.14-78.706 165.463-165.95 1.068-10.001-7.367-18.436-17.368-17.367z" fill="#a06ce5"/></g><path d="m267.016 65.409c56.135 76.079 56.135 179.859 0 255.937-3.05 4.134-7.665 6.2-12.28 6.2s-9.23-2.067-12.28-6.2c-56.135-76.078-56.135-179.859 0-255.937 6.099-8.267 18.46-8.267 24.56 0z" fill="#bb96ec"/></g></g><g><path d="m106.316 508.399 1.337-16.76c2.804-17.615-1.99-40.736-13.193-54.616l-86.693-107.411c-5.026-6.227-7.767-13.987-7.767-21.989v-152.119c0-6.524 5.289-11.812 11.812-11.812 17.513 0 31.71 14.197 31.71 31.71v73.156l-6.447 21.128 6.447 17.686.019.024c-.001-5.89 2.25-11.77 6.757-16.219 8.811-8.811 23.088-8.842 31.936-.068l91.451 90.679c14.084 13.965 22.007 32.978 22.007 52.812v94.066c0 1.856-1.505 3.361-3.361 3.361h-82.666c-1.961 0-3.505-1.673-3.349-3.628z" fill="#f2bb96"/><path d="m33.148 317.851 56.616 61.603c4.157 4.523 11.195 4.819 15.717.66 4.519-4.157 4.814-11.189.659-15.71l-56.612-61.598c-1.29-1.401-2.369-2.925-3.236-4.526-1.846-3.392-2.769-7.139-2.769-10.887 0-.011 0-.011 0-.022v-38.812c-3.158 1.846-6.139 4.104-8.852 6.784-17.336 17.113-18.004 44.57-1.523 62.508z" fill="#efae82"/></g><g><path d="m405.738 508.399-1.337-16.76c-2.804-17.615 1.99-40.736 13.193-54.616l86.692-107.41c5.026-6.227 7.767-13.987 7.767-21.99v-152.119c0-6.524-5.289-11.812-11.812-11.812-17.513 0-31.71 14.197-31.71 31.71v73.156l6.447 21.128-6.447 17.686-.019.024c.001-5.89-2.25-11.77-6.757-16.219-8.811-8.811-23.088-8.842-31.936-.068l-91.451 90.679c-14.084 13.965-22.007 32.978-22.007 52.812v94.066c0 1.856 1.505 3.361 3.361 3.361h82.666c1.961 0 3.506-1.673 3.35-3.628z" fill="#f2bb96"/><path d="m478.905 317.851-56.616 61.603c-4.157 4.523-11.195 4.819-15.717.66-4.519-4.157-4.814-11.189-.659-15.71l56.612-61.598c1.29-1.401 2.369-2.925 3.236-4.526 1.846-3.392 2.769-7.139 2.769-10.887 0-.011 0-.011 0-.022v-38.812c3.158 1.846 6.139 4.104 8.852 6.784 17.337 17.113 18.004 44.57 1.523 62.508z" fill="#efae82"/></g></g><g/><g/><g/><g/><g/><g/><g/><g/><g/><g/><g/><g/><g/><g/><g/></svg>